# xmcd
#
# Track frame offsets: 
#        150
#        26967
#        33885
#        39342
#        43812
#        49717
#        62735
#        82260
#        97267
#        120535
#        138042
#        152402
#        170962
#
# Disc length: 2525 seconds
#
# Revision: 2
# Processed by: cddbd v1.5.2PL0 Copyright (c) Steve Scherf et al.
# Submitted via: ExactAudioCopy v1.3
#
DISCID=b009db0d
DTITLE=テレサ・テン - NHK ラストコンサート DISC.1 [POCH-1892]
DYEAR=1900
DGENRE=
TTITLE0=オープニング 空港
TTITLE1=メドレー アカシアの夢
TTITLE2=ふるさとはどこですか
TTITLE3=女の生きがい
TTITLE4=雪化粧
TTITLE5=夜のフェリーボート
TTITLE6=船歌
TTITLE7=海韻
TTITLE8=何日君再来
TTITLE9=釜山港へ帰れ
TTITLE10=浪花節だよ人生は
TTITLE11=北国の春
TTITLE12=夜来香
EXTD=
EXTT0=
EXTT1=
EXTT2=
EXTT3=
EXTT4=
EXTT5=
EXTT6=
EXTT7=
EXTT8=
EXTT9=
EXTT10=
EXTT11=
EXTT12=
PLAYORDER=
